<svg xmlns="http://www.w3.org/2000/svg" viewBox="0 0 24 16" width="48" height="32" shape-rendering="crispEdges">
<rect x="4" y="0" width="5" height="1" fill="#b8a47e"/>
<rect x="9" y="0" width="1" height="1" fill="#9a8662"/>
<rect x="10" y="0" width="5" height="1" fill="#b8a47e"/>
<rect x="15" y="0" width="1" height="1" fill="#9a8662"/>
<rect x="16" y="0" width="4" height="1" fill="#b8a47e"/>
<rect x="3" y="1" width="1" height="1" fill="#b8a47e"/>
<rect x="4" y="1" width="1" height="1" fill="#9a8662"/>
<rect x="5" y="1" width="5" height="1" fill="#b8a47e"/>
<rect x="10" y="1" width="1" height="1" fill="#9a8662"/>
<rect x="11" y="1" width="5" height="1" fill="#b8a47e"/>
<rect x="16" y="1" width="1" height="1" fill="#9a8662"/>
<rect x="17" y="1" width="3" height="1" fill="#b8a47e"/>
<rect x="20" y="1" width="1" height="1" fill="#9a8662"/>
<rect x="2" y="2" width="5" height="1" fill="#b8a47e"/>
<rect x="7" y="2" width="1" height="1" fill="#9a8662"/>
<rect x="8" y="2" width="5" height="1" fill="#b8a47e"/>
<rect x="13" y="2" width="1" height="1" fill="#9a8662"/>
<rect x="14" y="2" width="5" height="1" fill="#b8a47e"/>
<rect x="19" y="2" width="1" height="1" fill="#9a8662"/>
<rect x="20" y="2" width="2" height="1" fill="#b8a47e"/>
<rect x="1" y="3" width="1" height="1" fill="#9a8662"/>
<rect x="2" y="3" width="3" height="1" fill="#b8a47e"/>
<rect x="5" y="3" width="1" height="1" fill="#9a8662"/>
<rect x="6" y="3" width="5" height="1" fill="#b8a47e"/>
<rect x="11" y="3" width="1" height="1" fill="#9a8662"/>
<rect x="12" y="3" width="5" height="1" fill="#b8a47e"/>
<rect x="17" y="3" width="1" height="1" fill="#9a8662"/>
<rect x="18" y="3" width="4" height="1" fill="#b8a47e"/>
<rect x="22" y="3" width="1" height="1" fill="#9a8662"/>
<rect x="1" y="4" width="6" height="1" fill="#b8a47e"/>
<rect x="7" y="4" width="1" height="1" fill="#9a8662"/>
<rect x="8" y="4" width="5" height="1" fill="#b8a47e"/>
<rect x="13" y="4" width="1" height="1" fill="#9a8662"/>
<rect x="14" y="4" width="5" height="1" fill="#b8a47e"/>
<rect x="19" y="4" width="1" height="1" fill="#9a8662"/>
<rect x="20" y="4" width="3" height="1" fill="#b8a47e"/>
<rect x="1" y="5" width="1" height="1" fill="#6b5d45"/>
<rect x="2" y="5" width="20" height="1" fill="#9a8662"/>
<rect x="22" y="5" width="1" height="1" fill="#6b5d45"/>
<rect x="1" y="6" width="3" height="1" fill="#b8a47e"/>
<rect x="4" y="6" width="1" height="1" fill="#9a8662"/>
<rect x="5" y="6" width="5" height="1" fill="#b8a47e"/>
<rect x="10" y="6" width="1" height="1" fill="#9a8662"/>
<rect x="11" y="6" width="5" height="1" fill="#b8a47e"/>
<rect x="16" y="6" width="1" height="1" fill="#9a8662"/>
<rect x="17" y="6" width="6" height="1" fill="#b8a47e"/>
<rect x="1" y="7" width="1" height="1" fill="#b8a47e"/>
<rect x="2" y="7" width="1" height="1" fill="#9a8662"/>
<rect x="3" y="7" width="5" height="1" fill="#b8a47e"/>
<rect x="8" y="7" width="1" height="1" fill="#9a8662"/>
<rect x="9" y="7" width="5" height="1" fill="#b8a47e"/>
<rect x="14" y="7" width="1" height="1" fill="#9a8662"/>
<rect x="15" y="7" width="5" height="1" fill="#b8a47e"/>
<rect x="20" y="7" width="1" height="1" fill="#9a8662"/>
<rect x="21" y="7" width="2" height="1" fill="#b8a47e"/>
<rect x="1" y="8" width="4" height="1" fill="#b8a47e"/>
<rect x="5" y="8" width="1" height="1" fill="#9a8662"/>
<rect x="6" y="8" width="5" height="1" fill="#b8a47e"/>
<rect x="11" y="8" width="1" height="1" fill="#9a8662"/>
<rect x="12" y="8" width="5" height="1" fill="#b8a47e"/>
<rect x="17" y="8" width="1" height="1" fill="#9a8662"/>
<rect x="18" y="8" width="5" height="1" fill="#b8a47e"/>
<rect x="1" y="9" width="1" height="1" fill="#6b5d45"/>
<rect x="2" y="9" width="20" height="1" fill="#9a8662"/>
<rect x="22" y="9" width="1" height="1" fill="#6b5d45"/>
<rect x="0" y="10" width="24" height="1" fill="#7c7c82"/>
<rect x="0" y="11" width="1" height="1" fill="#7c7c82"/>
<rect x="1" y="11" width="1" height="1" fill="#65656b"/>
<rect x="2" y="11" width="3" height="1" fill="#7c7c82"/>
<rect x="5" y="11" width="1" height="1" fill="#65656b"/>
<rect x="6" y="11" width="5" height="1" fill="#7c7c82"/>
<rect x="11" y="11" width="1" height="1" fill="#65656b"/>
<rect x="12" y="11" width="5" height="1" fill="#7c7c82"/>
<rect x="17" y="11" width="1" height="1" fill="#65656b"/>
<rect x="18" y="11" width="4" height="1" fill="#7c7c82"/>
<rect x="22" y="11" width="1" height="1" fill="#65656b"/>
<rect x="23" y="11" width="1" height="1" fill="#7c7c82"/>
<rect x="0" y="12" width="24" height="1" fill="#7c7c82"/>
</svg>