<svg xmlns="http://www.w3.org/2000/svg" viewBox="0 0 24 24" width="96" height="96" shape-rendering="crispEdges">
<rect x="2" y="0" width="1" height="1" fill="#d6d3d1"/>
<rect x="21" y="0" width="1" height="1" fill="#d6d3d1"/>
<rect x="2" y="1" width="2" height="1" fill="#5b1212"/>
<rect x="20" y="1" width="2" height="1" fill="#5b1212"/>
<rect x="2" y="2" width="3" height="1" fill="#5b1212"/>
<rect x="8" y="2" width="8" height="1" fill="#7f1d1d"/>
<rect x="19" y="2" width="3" height="1" fill="#5b1212"/>
<rect x="3" y="3" width="3" height="1" fill="#5b1212"/>
<rect x="7" y="3" width="10" height="1" fill="#7f1d1d"/>
<rect x="18" y="3" width="3" height="1" fill="#5b1212"/>
<rect x="4" y="4" width="2" height="1" fill="#5b1212"/>
<rect x="6" y="4" width="12" height="1" fill="#7f1d1d"/>
<rect x="18" y="4" width="2" height="1" fill="#5b1212"/>
<rect x="5" y="5" width="3" height="1" fill="#7f1d1d"/>
<rect x="8" y="5" width="2" height="1" fill="#fbbf24"/>
<rect x="10" y="5" width="4" height="1" fill="#7f1d1d"/>
<rect x="14" y="5" width="2" height="1" fill="#fbbf24"/>
<rect x="16" y="5" width="3" height="1" fill="#7f1d1d"/>
<rect x="4" y="6" width="4" height="1" fill="#7f1d1d"/>
<rect x="8" y="6" width="2" height="1" fill="#fbbf24"/>
<rect x="10" y="6" width="4" height="1" fill="#7f1d1d"/>
<rect x="14" y="6" width="2" height="1" fill="#fbbf24"/>
<rect x="16" y="6" width="4" height="1" fill="#7f1d1d"/>
<rect x="4" y="7" width="16" height="1" fill="#7f1d1d"/>
<rect x="3" y="8" width="4" height="1" fill="#7f1d1d"/>
<rect x="7" y="8" width="1" height="1" fill="#450a0a"/>
<rect x="8" y="8" width="8" height="1" fill="#d6d3d1"/>
<rect x="16" y="8" width="1" height="1" fill="#450a0a"/>
<rect x="17" y="8" width="4" height="1" fill="#7f1d1d"/>
<rect x="3" y="9" width="4" height="1" fill="#7f1d1d"/>
<rect x="7" y="9" width="10" height="1" fill="#450a0a"/>
<rect x="17" y="9" width="4" height="1" fill="#7f1d1d"/>
<rect x="2" y="10" width="1" height="1" fill="#5b1212"/>
<rect x="3" y="10" width="18" height="1" fill="#7f1d1d"/>
<rect x="21" y="10" width="1" height="1" fill="#5b1212"/>
<rect x="2" y="11" width="2" height="1" fill="#5b1212"/>
<rect x="4" y="11" width="3" height="1" fill="#7f1d1d"/>
<rect x="7" y="11" width="1" height="1" fill="#991b1b"/>
<rect x="8" y="11" width="8" height="1" fill="#7f1d1d"/>
<rect x="16" y="11" width="1" height="1" fill="#991b1b"/>
<rect x="17" y="11" width="3" height="1" fill="#7f1d1d"/>
<rect x="20" y="11" width="2" height="1" fill="#5b1212"/>
<rect x="1" y="12" width="3" height="1" fill="#5b1212"/>
<rect x="4" y="12" width="16" height="1" fill="#7f1d1d"/>
<rect x="20" y="12" width="3" height="1" fill="#5b1212"/>
<rect x="1" y="13" width="2" height="1" fill="#5b1212"/>
<rect x="4" y="13" width="3" height="1" fill="#7f1d1d"/>
<rect x="7" y="13" width="1" height="1" fill="#991b1b"/>
<rect x="8" y="13" width="3" height="1" fill="#7f1d1d"/>
<rect x="11" y="13" width="2" height="1" fill="#450a0a"/>
<rect x="13" y="13" width="3" height="1" fill="#7f1d1d"/>
<rect x="16" y="13" width="1" height="1" fill="#991b1b"/>
<rect x="17" y="13" width="3" height="1" fill="#7f1d1d"/>
<rect x="21" y="13" width="2" height="1" fill="#5b1212"/>
<rect x="1" y="14" width="1" height="1" fill="#d6d3d1"/>
<rect x="4" y="14" width="7" height="1" fill="#7f1d1d"/>
<rect x="11" y="14" width="2" height="1" fill="#450a0a"/>
<rect x="13" y="14" width="7" height="1" fill="#7f1d1d"/>
<rect x="22" y="14" width="1" height="1" fill="#d6d3d1"/>
<rect x="4" y="15" width="16" height="1" fill="#7f1d1d"/>
<rect x="5" y="16" width="14" height="1" fill="#7f1d1d"/>
<rect x="5" y="17" width="4" height="1" fill="#7f1d1d"/>
<rect x="9" y="17" width="6" height="1" fill="#991b1b"/>
<rect x="15" y="17" width="4" height="1" fill="#7f1d1d"/>
<rect x="6" y="18" width="4" height="1" fill="#7f1d1d"/>
<rect x="14" y="18" width="4" height="1" fill="#7f1d1d"/>
<rect x="6" y="19" width="3" height="1" fill="#7f1d1d"/>
<rect x="15" y="19" width="3" height="1" fill="#7f1d1d"/>
<rect x="5" y="20" width="1" height="1" fill="#5b1212"/>
<rect x="6" y="20" width="3" height="1" fill="#7f1d1d"/>
<rect x="15" y="20" width="3" height="1" fill="#7f1d1d"/>
<rect x="18" y="20" width="1" height="1" fill="#5b1212"/>
<rect x="5" y="21" width="3" height="1" fill="#5b1212"/>
<rect x="16" y="21" width="3" height="1" fill="#5b1212"/>
<rect x="6" y="22" width="1" height="1" fill="#d6d3d1"/>
<rect x="17" y="22" width="1" height="1" fill="#d6d3d1"/>
</svg>