<svg xmlns="http://www.w3.org/2000/svg" viewBox="0 0 16 16" width="32" height="32" shape-rendering="crispEdges">
<rect x="6" y="0" width="3" height="1" fill="#9ca3af"/>
<rect x="6" y="1" width="1" height="1" fill="#9ca3af"/>
<rect x="7" y="1" width="1" height="1" fill="#6b7280"/>
<rect x="8" y="1" width="1" height="1" fill="#9ca3af"/>
<rect x="5" y="2" width="5" height="1" fill="#9ca3af"/>
<rect x="4" y="3" width="7" height="1" fill="#4d5d2a"/>
<rect x="3" y="4" width="2" height="1" fill="#4d5d2a"/>
<rect x="5" y="4" width="1" height="1" fill="#3a4720"/>
<rect x="6" y="4" width="2" height="1" fill="#4d5d2a"/>
<rect x="8" y="4" width="1" height="1" fill="#3a4720"/>
<rect x="9" y="4" width="3" height="1" fill="#4d5d2a"/>
<rect x="2" y="5" width="11" height="1" fill="#4d5d2a"/>
<rect x="2" y="6" width="1" height="1" fill="#4d5d2a"/>
<rect x="3" y="6" width="1" height="1" fill="#3a4720"/>
<rect x="4" y="6" width="2" height="1" fill="#4d5d2a"/>
<rect x="6" y="6" width="1" height="1" fill="#3a4720"/>
<rect x="7" y="6" width="2" height="1" fill="#4d5d2a"/>
<rect x="9" y="6" width="1" height="1" fill="#3a4720"/>
<rect x="10" y="6" width="2" height="1" fill="#4d5d2a"/>
<rect x="12" y="6" width="1" height="1" fill="#3a4720"/>
<rect x="2" y="7" width="11" height="1" fill="#4d5d2a"/>
<rect x="2" y="8" width="1" height="1" fill="#4d5d2a"/>
<rect x="3" y="8" width="1" height="1" fill="#3a4720"/>
<rect x="4" y="8" width="2" height="1" fill="#4d5d2a"/>
<rect x="6" y="8" width="1" height="1" fill="#3a4720"/>
<rect x="7" y="8" width="2" height="1" fill="#4d5d2a"/>
<rect x="9" y="8" width="1" height="1" fill="#3a4720"/>
<rect x="10" y="8" width="2" height="1" fill="#4d5d2a"/>
<rect x="12" y="8" width="1" height="1" fill="#3a4720"/>
<rect x="2" y="9" width="11" height="1" fill="#4d5d2a"/>
<rect x="2" y="10" width="1" height="1" fill="#4d5d2a"/>
<rect x="3" y="10" width="1" height="1" fill="#3a4720"/>
<rect x="4" y="10" width="2" height="1" fill="#4d5d2a"/>
<rect x="6" y="10" width="1" height="1" fill="#3a4720"/>
<rect x="7" y="10" width="2" height="1" fill="#4d5d2a"/>
<rect x="9" y="10" width="1" height="1" fill="#3a4720"/>
<rect x="10" y="10" width="2" height="1" fill="#4d5d2a"/>
<rect x="12" y="10" width="1" height="1" fill="#3a4720"/>
<rect x="3" y="11" width="9" height="1" fill="#4d5d2a"/>
<rect x="4" y="12" width="7" height="1" fill="#4d5d2a"/>
<rect x="5" y="13" width="5" height="1" fill="#4d5d2a"/>
</svg>