<svg xmlns="http://www.w3.org/2000/svg" viewBox="0 0 12 12" width="24" height="24" shape-rendering="crispEdges">
<rect x="4" y="0" width="3" height="1" fill="#9ca3af"/>
<rect x="4" y="1" width="1" height="1" fill="#9ca3af"/>
<rect x="5" y="1" width="1" height="1" fill="#6b7280"/>
<rect x="6" y="1" width="1" height="1" fill="#9ca3af"/>
<rect x="3" y="2" width="4" height="1" fill="#9ca3af"/>
<rect x="2" y="3" width="6" height="1" fill="#4d5d2a"/>
<rect x="1" y="4" width="2" height="1" fill="#4d5d2a"/>
<rect x="3" y="4" width="1" height="1" fill="#3a4720"/>
<rect x="4" y="4" width="2" height="1" fill="#4d5d2a"/>
<rect x="6" y="4" width="1" height="1" fill="#3a4720"/>
<rect x="7" y="4" width="2" height="1" fill="#4d5d2a"/>
<rect x="1" y="5" width="8" height="1" fill="#4d5d2a"/>
<rect x="1" y="6" width="1" height="1" fill="#4d5d2a"/>
<rect x="2" y="6" width="1" height="1" fill="#3a4720"/>
<rect x="3" y="6" width="2" height="1" fill="#4d5d2a"/>
<rect x="5" y="6" width="1" height="1" fill="#3a4720"/>
<rect x="6" y="6" width="2" height="1" fill="#4d5d2a"/>
<rect x="8" y="6" width="1" height="1" fill="#3a4720"/>
<rect x="1" y="7" width="8" height="1" fill="#4d5d2a"/>
<rect x="1" y="8" width="1" height="1" fill="#4d5d2a"/>
<rect x="2" y="8" width="1" height="1" fill="#3a4720"/>
<rect x="3" y="8" width="2" height="1" fill="#4d5d2a"/>
<rect x="5" y="8" width="1" height="1" fill="#3a4720"/>
<rect x="6" y="8" width="2" height="1" fill="#4d5d2a"/>
<rect x="8" y="8" width="1" height="1" fill="#3a4720"/>
<rect x="2" y="9" width="6" height="1" fill="#4d5d2a"/>
<rect x="3" y="10" width="4" height="1" fill="#4d5d2a"/>
</svg>