<svg xmlns="http://www.w3.org/2000/svg" viewBox="0 0 16 16" width="48" height="48" shape-rendering="crispEdges">
<rect x="3" y="0" width="2" height="1" fill="#6f8147"/>
<rect x="11" y="0" width="2" height="1" fill="#6f8147"/>
<rect x="3" y="1" width="2" height="1" fill="#8da05e"/>
<rect x="11" y="1" width="2" height="1" fill="#8da05e"/>
<rect x="3" y="2" width="2" height="1" fill="#8da05e"/>
<rect x="6" y="2" width="4" height="1" fill="#8da05e"/>
<rect x="11" y="2" width="2" height="1" fill="#8da05e"/>
<rect x="3" y="3" width="10" height="1" fill="#8da05e"/>
<rect x="3" y="4" width="1" height="1" fill="#6f8147"/>
<rect x="4" y="4" width="1" height="1" fill="#8da05e"/>
<rect x="5" y="4" width="1" height="1" fill="#1c1917"/>
<rect x="6" y="4" width="1" height="1" fill="#6f8147"/>
<rect x="7" y="4" width="2" height="1" fill="#8da05e"/>
<rect x="9" y="4" width="1" height="1" fill="#6f8147"/>
<rect x="10" y="4" width="1" height="1" fill="#1c1917"/>
<rect x="11" y="4" width="1" height="1" fill="#8da05e"/>
<rect x="12" y="4" width="1" height="1" fill="#6f8147"/>
<rect x="4" y="5" width="8" height="1" fill="#8da05e"/>
<rect x="4" y="6" width="1" height="1" fill="#5b4636"/>
<rect x="5" y="6" width="6" height="1" fill="#8da05e"/>
<rect x="11" y="6" width="1" height="1" fill="#5b4636"/>
<rect x="3" y="7" width="3" height="1" fill="#5b4636"/>
<rect x="6" y="7" width="1" height="1" fill="#8da05e"/>
<rect x="7" y="7" width="2" height="1" fill="#7f1d1d"/>
<rect x="9" y="7" width="1" height="1" fill="#8da05e"/>
<rect x="10" y="7" width="3" height="1" fill="#5b4636"/>
<rect x="2" y="8" width="2" height="1" fill="#5b4636"/>
<rect x="4" y="8" width="1" height="1" fill="#473628"/>
<rect x="5" y="8" width="6" height="1" fill="#5b4636"/>
<rect x="11" y="8" width="1" height="1" fill="#473628"/>
<rect x="12" y="8" width="2" height="1" fill="#5b4636"/>
<rect x="2" y="9" width="1" height="1" fill="#5b4636"/>
<rect x="3" y="9" width="1" height="1" fill="#473628"/>
<rect x="5" y="9" width="6" height="1" fill="#5b4636"/>
<rect x="12" y="9" width="1" height="1" fill="#473628"/>
<rect x="13" y="9" width="1" height="1" fill="#5b4636"/>
<rect x="5" y="10" width="6" height="1" fill="#5b4636"/>
<rect x="5" y="11" width="1" height="1" fill="#5b4636"/>
<rect x="6" y="11" width="1" height="1" fill="#473628"/>
<rect x="7" y="11" width="2" height="1" fill="#5b4636"/>
<rect x="9" y="11" width="1" height="1" fill="#473628"/>
<rect x="10" y="11" width="1" height="1" fill="#5b4636"/>
<rect x="5" y="12" width="6" height="1" fill="#5b4636"/>
<rect x="5" y="13" width="1" height="1" fill="#473628"/>
<rect x="6" y="13" width="1" height="1" fill="#5b4636"/>
<rect x="9" y="13" width="1" height="1" fill="#5b4636"/>
<rect x="10" y="13" width="1" height="1" fill="#473628"/>
<rect x="5" y="14" width="2" height="1" fill="#8da05e"/>
<rect x="9" y="14" width="2" height="1" fill="#8da05e"/>
</svg>