<svg xmlns="http://www.w3.org/2000/svg" viewBox="0 0 16 16" width="64" height="64" shape-rendering="crispEdges">
<rect x="7" y="0" width="1" height="1" fill="#27272a"/>
<rect x="8" y="0" width="1" height="1" fill="#52525b"/>
<rect x="7" y="1" width="1" height="1" fill="#27272a"/>
<rect x="8" y="1" width="1" height="1" fill="#52525b"/>
<rect x="7" y="2" width="1" height="1" fill="#27272a"/>
<rect x="8" y="2" width="1" height="1" fill="#52525b"/>
<rect x="6" y="3" width="1" height="1" fill="#d4a373"/>
<rect x="7" y="3" width="1" height="1" fill="#27272a"/>
<rect x="8" y="3" width="1" height="1" fill="#52525b"/>
<rect x="9" y="3" width="1" height="1" fill="#d4a373"/>
<rect x="5" y="4" width="1" height="1" fill="#334155"/>
<rect x="6" y="4" width="1" height="1" fill="#d4a373"/>
<rect x="7" y="4" width="2" height="1" fill="#27272a"/>
<rect x="9" y="4" width="1" height="1" fill="#d4a373"/>
<rect x="10" y="4" width="1" height="1" fill="#334155"/>
<rect x="4" y="5" width="2" height="1" fill="#334155"/>
<rect x="6" y="5" width="4" height="1" fill="#3b82f6"/>
<rect x="10" y="5" width="2" height="1" fill="#334155"/>
<rect x="3" y="6" width="2" height="1" fill="#334155"/>
<rect x="5" y="6" width="6" height="1" fill="#3b82f6"/>
<rect x="11" y="6" width="2" height="1" fill="#334155"/>
<rect x="3" y="7" width="1" height="1" fill="#334155"/>
<rect x="4" y="7" width="2" height="1" fill="#3b82f6"/>
<rect x="6" y="7" width="4" height="1" fill="#1d4ed8"/>
<rect x="10" y="7" width="2" height="1" fill="#3b82f6"/>
<rect x="12" y="7" width="1" height="1" fill="#334155"/>
<rect x="3" y="8" width="1" height="1" fill="#334155"/>
<rect x="4" y="8" width="1" height="1" fill="#3b82f6"/>
<rect x="5" y="8" width="6" height="1" fill="#1d4ed8"/>
<rect x="11" y="8" width="1" height="1" fill="#3b82f6"/>
<rect x="12" y="8" width="1" height="1" fill="#334155"/>
<rect x="3" y="9" width="1" height="1" fill="#334155"/>
<rect x="4" y="9" width="2" height="1" fill="#3b82f6"/>
<rect x="6" y="9" width="4" height="1" fill="#1d4ed8"/>
<rect x="10" y="9" width="2" height="1" fill="#3b82f6"/>
<rect x="12" y="9" width="1" height="1" fill="#334155"/>
<rect x="3" y="10" width="2" height="1" fill="#334155"/>
<rect x="5" y="10" width="6" height="1" fill="#3b82f6"/>
<rect x="11" y="10" width="2" height="1" fill="#334155"/>
<rect x="4" y="11" width="2" height="1" fill="#1e293b"/>
<rect x="6" y="11" width="4" height="1" fill="#3b82f6"/>
<rect x="10" y="11" width="2" height="1" fill="#1e293b"/>
<rect x="4" y="12" width="8" height="1" fill="#1e293b"/>
<rect x="5" y="13" width="6" height="1" fill="#1e293b"/>
<rect x="5" y="14" width="2" height="1" fill="#1e293b"/>
<rect x="9" y="14" width="2" height="1" fill="#1e293b"/>
</svg>