<svg xmlns="http://www.w3.org/2000/svg" viewBox="0 0 16 16" width="48" height="48" shape-rendering="crispEdges">
<rect x="5" y="1" width="6" height="1" fill="#6b8e23"/>
<rect x="4" y="2" width="8" height="1" fill="#6b8e23"/>
<rect x="4" y="3" width="1" height="1" fill="#6b8e23"/>
<rect x="5" y="3" width="1" height="1" fill="#111111"/>
<rect x="6" y="3" width="4" height="1" fill="#6b8e23"/>
<rect x="10" y="3" width="1" height="1" fill="#111111"/>
<rect x="11" y="3" width="1" height="1" fill="#6b8e23"/>
<rect x="4" y="4" width="2" height="1" fill="#6b8e23"/>
<rect x="6" y="4" width="4" height="1" fill="#1a1a1a"/>
<rect x="10" y="4" width="2" height="1" fill="#6b8e23"/>
<rect x="4" y="5" width="1" height="1" fill="#6b8e23"/>
<rect x="5" y="5" width="6" height="1" fill="#1a1a1a"/>
<rect x="11" y="5" width="1" height="1" fill="#6b8e23"/>
<rect x="3" y="6" width="3" height="1" fill="#6b8e23"/>
<rect x="6" y="6" width="4" height="1" fill="#1a1a1a"/>
<rect x="10" y="6" width="3" height="1" fill="#6b8e23"/>
<rect x="2" y="7" width="2" height="1" fill="#6b8e23"/>
<rect x="4" y="7" width="8" height="1" fill="#9acd32"/>
<rect x="12" y="7" width="2" height="1" fill="#6b8e23"/>
<rect x="2" y="8" width="1" height="1" fill="#6b8e23"/>
<rect x="3" y="8" width="2" height="1" fill="#9acd32"/>
<rect x="5" y="8" width="1" height="1" fill="#7fb024"/>
<rect x="6" y="8" width="4" height="1" fill="#9acd32"/>
<rect x="10" y="8" width="1" height="1" fill="#7fb024"/>
<rect x="11" y="8" width="2" height="1" fill="#9acd32"/>
<rect x="13" y="8" width="1" height="1" fill="#6b8e23"/>
<rect x="2" y="9" width="1" height="1" fill="#6b8e23"/>
<rect x="3" y="9" width="10" height="1" fill="#9acd32"/>
<rect x="13" y="9" width="1" height="1" fill="#6b8e23"/>
<rect x="2" y="10" width="1" height="1" fill="#6b8e23"/>
<rect x="3" y="10" width="2" height="1" fill="#9acd32"/>
<rect x="5" y="10" width="1" height="1" fill="#7fb024"/>
<rect x="6" y="10" width="4" height="1" fill="#9acd32"/>
<rect x="10" y="10" width="1" height="1" fill="#7fb024"/>
<rect x="11" y="10" width="2" height="1" fill="#9acd32"/>
<rect x="13" y="10" width="1" height="1" fill="#6b8e23"/>
<rect x="2" y="11" width="2" height="1" fill="#6b8e23"/>
<rect x="4" y="11" width="8" height="1" fill="#9acd32"/>
<rect x="12" y="11" width="2" height="1" fill="#6b8e23"/>
<rect x="3" y="12" width="10" height="1" fill="#6b8e23"/>
<rect x="4" y="13" width="2" height="1" fill="#6b8e23"/>
<rect x="10" y="13" width="2" height="1" fill="#6b8e23"/>
<rect x="4" y="14" width="2" height="1" fill="#6b8e23"/>
<rect x="10" y="14" width="2" height="1" fill="#6b8e23"/>
</svg>