<svg xmlns="http://www.w3.org/2000/svg" viewBox="0 0 16 16" width="48" height="48" shape-rendering="crispEdges">
<rect x="2" y="0" width="1" height="1" fill="#3f3f3f"/>
<rect x="13" y="0" width="1" height="1" fill="#3f3f3f"/>
<rect x="2" y="1" width="1" height="1" fill="#b5c04a"/>
<rect x="13" y="1" width="1" height="1" fill="#b5c04a"/>
<rect x="2" y="2" width="1" height="1" fill="#b5c04a"/>
<rect x="3" y="2" width="1" height="1" fill="#8a9438"/>
<rect x="12" y="2" width="1" height="1" fill="#8a9438"/>
<rect x="13" y="2" width="1" height="1" fill="#b5c04a"/>
<rect x="3" y="3" width="1" height="1" fill="#b5c04a"/>
<rect x="4" y="3" width="1" height="1" fill="#8a9438"/>
<rect x="6" y="3" width="4" height="1" fill="#b5c04a"/>
<rect x="11" y="3" width="1" height="1" fill="#8a9438"/>
<rect x="12" y="3" width="1" height="1" fill="#b5c04a"/>
<rect x="3" y="4" width="10" height="1" fill="#b5c04a"/>
<rect x="4" y="5" width="1" height="1" fill="#b5c04a"/>
<rect x="5" y="5" width="1" height="1" fill="#dc2626"/>
<rect x="6" y="5" width="4" height="1" fill="#b5c04a"/>
<rect x="10" y="5" width="1" height="1" fill="#dc2626"/>
<rect x="11" y="5" width="1" height="1" fill="#b5c04a"/>
<rect x="4" y="6" width="1" height="1" fill="#8a9438"/>
<rect x="5" y="6" width="6" height="1" fill="#b5c04a"/>
<rect x="11" y="6" width="1" height="1" fill="#8a9438"/>
<rect x="5" y="7" width="6" height="1" fill="#b5c04a"/>
<rect x="5" y="8" width="1" height="1" fill="#8a9438"/>
<rect x="6" y="8" width="4" height="1" fill="#b5c04a"/>
<rect x="10" y="8" width="1" height="1" fill="#8a9438"/>
<rect x="6" y="9" width="4" height="1" fill="#b5c04a"/>
<rect x="6" y="10" width="1" height="1" fill="#8a9438"/>
<rect x="7" y="10" width="2" height="1" fill="#b5c04a"/>
<rect x="9" y="10" width="1" height="1" fill="#8a9438"/>
<rect x="6" y="11" width="4" height="1" fill="#b5c04a"/>
<rect x="5" y="12" width="1" height="1" fill="#b5c04a"/>
<rect x="6" y="12" width="1" height="1" fill="#8a9438"/>
<rect x="9" y="12" width="1" height="1" fill="#8a9438"/>
<rect x="10" y="12" width="1" height="1" fill="#b5c04a"/>
<rect x="5" y="13" width="1" height="1" fill="#b5c04a"/>
<rect x="10" y="13" width="1" height="1" fill="#b5c04a"/>
<rect x="4" y="14" width="1" height="1" fill="#3f3f3f"/>
<rect x="5" y="14" width="1" height="1" fill="#8a9438"/>
<rect x="10" y="14" width="1" height="1" fill="#8a9438"/>
<rect x="11" y="14" width="1" height="1" fill="#3f3f3f"/>
</svg>