<svg xmlns="http://www.w3.org/2000/svg" viewBox="0 0 16 8" width="48" height="24" shape-rendering="crispEdges">
<rect x="6" y="0" width="4" height="1" fill="#3f3f46"/>
<rect x="2" y="1" width="5" height="1" fill="#3f3f46"/>
<rect x="7" y="1" width="2" height="1" fill="#22d3ee"/>
<rect x="9" y="1" width="4" height="1" fill="#3f3f46"/>
<rect x="13" y="1" width="2" height="1" fill="#22d3ee"/>
<rect x="2" y="2" width="1" height="1" fill="#3f3f46"/>
<rect x="3" y="2" width="2" height="1" fill="#27272a"/>
<rect x="5" y="2" width="6" height="1" fill="#22d3ee"/>
<rect x="11" y="2" width="2" height="1" fill="#3f3f46"/>
<rect x="13" y="2" width="2" height="1" fill="#22d3ee"/>
<rect x="2" y="3" width="5" height="1" fill="#3f3f46"/>
<rect x="7" y="3" width="2" height="1" fill="#22d3ee"/>
<rect x="9" y="3" width="4" height="1" fill="#3f3f46"/>
<rect x="13" y="3" width="2" height="1" fill="#22d3ee"/>
<rect x="3" y="4" width="2" height="1" fill="#27272a"/>
<rect x="3" y="5" width="2" height="1" fill="#27272a"/>
</svg>