<svg xmlns="http://www.w3.org/2000/svg" viewBox="0 0 16 8" width="48" height="24" shape-rendering="crispEdges">
<rect x="2" y="1" width="13" height="1" fill="#3f3f46"/>
<rect x="15" y="1" width="1" height="1" fill="#71717a"/>
<rect x="2" y="2" width="1" height="1" fill="#3f3f46"/>
<rect x="3" y="2" width="9" height="1" fill="#27272a"/>
<rect x="12" y="2" width="3" height="1" fill="#3f3f46"/>
<rect x="15" y="2" width="1" height="1" fill="#71717a"/>
<rect x="2" y="3" width="1" height="1" fill="#3f3f46"/>
<rect x="3" y="3" width="9" height="1" fill="#27272a"/>
<rect x="12" y="3" width="2" height="1" fill="#3f3f46"/>
<rect x="3" y="4" width="2" height="1" fill="#27272a"/>
<rect x="6" y="4" width="4" height="1" fill="#27272a"/>
<rect x="11" y="4" width="1" height="1" fill="#3f3f46"/>
<rect x="13" y="4" width="1" height="1" fill="#3f3f46"/>
<rect x="6" y="5" width="4" height="1" fill="#27272a"/>
<rect x="11" y="5" width="1" height="1" fill="#3f3f46"/>
<rect x="13" y="5" width="1" height="1" fill="#3f3f46"/>
<rect x="6" y="6" width="4" height="1" fill="#27272a"/>
</svg>