<svg xmlns="http://www.w3.org/2000/svg" viewBox="0 0 6 11" width="32" height="32" shape-rendering="crispEdges">
<rect x="1" y="0" width="1" height="1" fill="#3f3f46"/>
<rect x="2" y="0" width="1" height="1" fill="#52525b"/>
<rect x="3" y="0" width="1" height="1" fill="#3f3f46"/>
<rect x="1" y="1" width="1" height="1" fill="#3f3f46"/>
<rect x="2" y="1" width="1" height="1" fill="#52525b"/>
<rect x="3" y="1" width="1" height="1" fill="#3f3f46"/>
<rect x="1" y="2" width="1" height="1" fill="#3f3f46"/>
<rect x="2" y="2" width="1" height="1" fill="#52525b"/>
<rect x="3" y="2" width="1" height="1" fill="#3f3f46"/>
<rect x="1" y="3" width="1" height="1" fill="#3f3f46"/>
<rect x="2" y="3" width="1" height="1" fill="#52525b"/>
<rect x="3" y="3" width="1" height="1" fill="#3f3f46"/>
<rect x="1" y="4" width="1" height="1" fill="#3f3f46"/>
<rect x="2" y="4" width="2" height="1" fill="#22d3ee"/>
<rect x="4" y="4" width="1" height="1" fill="#3f3f46"/>
<rect x="1" y="5" width="1" height="1" fill="#3f3f46"/>
<rect x="2" y="5" width="2" height="1" fill="#27272a"/>
<rect x="4" y="5" width="1" height="1" fill="#3f3f46"/>
<rect x="1" y="6" width="1" height="1" fill="#3f3f46"/>
<rect x="2" y="6" width="2" height="1" fill="#27272a"/>
<rect x="4" y="6" width="1" height="1" fill="#3f3f46"/>
<rect x="1" y="7" width="1" height="1" fill="#3f3f46"/>
<rect x="2" y="7" width="2" height="1" fill="#27272a"/>
<rect x="4" y="7" width="1" height="1" fill="#3f3f46"/>
<rect x="1" y="8" width="1" height="1" fill="#3f3f46"/>
<rect x="2" y="8" width="2" height="1" fill="#27272a"/>
<rect x="4" y="8" width="1" height="1" fill="#3f3f46"/>
<rect x="2" y="9" width="2" height="1" fill="#27272a"/>
<rect x="2" y="10" width="2" height="1" fill="#27272a"/>
</svg>