<svg xmlns="http://www.w3.org/2000/svg" viewBox="0 0 16 8" width="48" height="24" shape-rendering="crispEdges">
<rect x="2" y="1" width="1" height="1" fill="#3f3f46"/>
<rect x="2" y="2" width="11" height="1" fill="#3f3f46"/>
<rect x="13" y="2" width="2" height="1" fill="#71717a"/>
<rect x="2" y="3" width="1" height="1" fill="#3f3f46"/>
<rect x="3" y="3" width="9" height="1" fill="#71717a"/>
<rect x="12" y="3" width="2" height="1" fill="#3f3f46"/>
<rect x="3" y="4" width="2" height="1" fill="#27272a"/>
<rect x="5" y="4" width="8" height="1" fill="#3f3f46"/>
<rect x="3" y="5" width="2" height="1" fill="#27272a"/>
<rect x="7" y="5" width="1" height="1" fill="#3f3f46"/>
<rect x="8" y="5" width="2" height="1" fill="#27272a"/>
<rect x="10" y="5" width="1" height="1" fill="#3f3f46"/>
<rect x="7" y="6" width="1" height="1" fill="#3f3f46"/>
<rect x="8" y="6" width="2" height="1" fill="#27272a"/>
<rect x="10" y="6" width="1" height="1" fill="#3f3f46"/>
<rect x="7" y="7" width="1" height="1" fill="#3f3f46"/>
<rect x="8" y="7" width="1" height="1" fill="#27272a"/>
<rect x="9" y="7" width="1" height="1" fill="#3f3f46"/>
</svg>