<svg xmlns="http://www.w3.org/2000/svg" viewBox="0 0 16 8" width="48" height="24" shape-rendering="crispEdges">
<rect x="7" y="0" width="3" height="1" fill="#3f3f46"/>
<rect x="2" y="1" width="12" height="1" fill="#3f3f46"/>
<rect x="14" y="1" width="1" height="1" fill="#71717a"/>
<rect x="2" y="2" width="1" height="1" fill="#3f3f46"/>
<rect x="3" y="2" width="8" height="1" fill="#27272a"/>
<rect x="11" y="2" width="3" height="1" fill="#3f3f46"/>
<rect x="14" y="2" width="1" height="1" fill="#71717a"/>
<rect x="3" y="3" width="2" height="1" fill="#27272a"/>
<rect x="7" y="3" width="1" height="1" fill="#3f3f46"/>
<rect x="8" y="3" width="2" height="1" fill="#27272a"/>
<rect x="10" y="3" width="1" height="1" fill="#3f3f46"/>
<rect x="3" y="4" width="2" height="1" fill="#27272a"/>
<rect x="7" y="4" width="1" height="1" fill="#3f3f46"/>
<rect x="8" y="4" width="2" height="1" fill="#27272a"/>
<rect x="10" y="4" width="1" height="1" fill="#3f3f46"/>
<rect x="7" y="5" width="1" height="1" fill="#3f3f46"/>
<rect x="8" y="5" width="1" height="1" fill="#27272a"/>
<rect x="9" y="5" width="1" height="1" fill="#3f3f46"/>
</svg>