<svg width="80" height="80" viewBox="0 0 80 80" xmlns="http://www.w3.org/2000/svg"><g transform="translate(2, 4)" fill="rgba(0,0,0,0.5)"><ellipse cx="40" cy="25" rx="22" ry="16"/><rect x="5" y="30" width="20" height="15" rx="7" transform="rotate(30 15 37)"/><rect x="55" y="30" width="20" height="15" rx="7" transform="rotate(-30 65 37)"/><ellipse cx="40" cy="45" rx="26" ry="24"/><rect x="12" y="40" width="18" height="30" rx="9"/><rect x="50" y="40" width="18" height="30" rx="9"/></g><rect x="5" y="30" width="20" height="15" rx="7" fill="#15803d" stroke="#111" stroke-width="1.5" transform="rotate(30 15 37)"/><rect x="55" y="30" width="20" height="15" rx="7" fill="#15803d" stroke="#111" stroke-width="1.5" transform="rotate(-30 65 37)"/><ellipse cx="40" cy="25" rx="22" ry="16" fill="#9f1239" stroke="#111" stroke-width="1.5"/><path d="M 25 20 Q 35 32 45 18" fill="none" stroke="#e11d48" stroke-width="2" stroke-linecap="round"/><path d="M 35 38 Q 45 28 55 35" fill="none" stroke="#fb7185" stroke-width="2" stroke-linecap="round"/><path d="M 22 30 Q 30 22 40 25" fill="none" stroke="#be185d" stroke-width="2" stroke-linecap="round"/><circle cx="40" cy="15" r="5" fill="#00ffcc" stroke="#111" stroke-width="1.5"/><circle cx="39" cy="13.5" r="1.5" fill="#fff"/><circle cx="26" cy="26" r="4" fill="#00ffcc" stroke="#111" stroke-width="1.5"/><circle cx="25" cy="25" r="1" fill="#fff"/><circle cx="54" cy="26" r="4" fill="#00ffcc" stroke="#111" stroke-width="1.5"/><circle cx="53" cy="25" r="1" fill="#fff"/><ellipse cx="40" cy="45" rx="26" ry="24" fill="#064e3b" stroke="#111" stroke-width="1.5"/><rect x="12" y="40" width="18" height="30" rx="9" fill="#22c55e" stroke="#111" stroke-width="1.5"/><rect x="50" y="40" width="18" height="30" rx="9" fill="#22c55e" stroke="#111" stroke-width="1.5"/><ellipse cx="18" cy="55" rx="4" ry="6" fill="#15803d" stroke="#111" stroke-width="1.5"/><ellipse cx="62" cy="55" rx="4" ry="6" fill="#15803d" stroke="#111" stroke-width="1.5"/><ellipse cx="21" cy="65" rx="6" ry="4" fill="#9f1239" stroke="#111" stroke-width="1"/><ellipse cx="59" cy="65" rx="6" ry="4" fill="#9f1239" stroke="#111" stroke-width="1"/><path d="M 16 68 Q 18 78 22 68 Z" fill="#f8fafc" stroke="#111" stroke-width="1.5" stroke-linejoin="round"/><path d="M 23 65 Q 28 75 28 62 Z" fill="#f8fafc" stroke="#111" stroke-width="1.5" stroke-linejoin="round"/><path d="M 64 68 Q 62 78 58 68 Z" fill="#f8fafc" stroke="#111" stroke-width="1.5" stroke-linejoin="round"/><path d="M 57 65 Q 52 75 52 62 Z" fill="#f8fafc" stroke="#111" stroke-width="1.5" stroke-linejoin="round"/><path d="M 32 30 Q 40 45 48 30 Z" fill="#9f1239" stroke="#111" stroke-width="1.5"/><rect x="36" y="28" width="8" height="6" rx="2" fill="#cbd5e1" stroke="#111" stroke-width="1.5"/><rect x="37" y="34" width="6" height="6" rx="2" fill="#cbd5e1" stroke="#111" stroke-width="1.5"/><rect x="38" y="40" width="4" height="6" rx="2" fill="#cbd5e1" stroke="#111" stroke-width="1.5"/><ellipse cx="40" cy="62" rx="16" ry="10" fill="#9f1239" stroke="#111" stroke-width="1.5"/><ellipse cx="40" cy="62" rx="12" ry="6" fill="#1a1a1a" stroke="#111" stroke-width="1.5"/><polygon points="30,60 32,56 34,60" fill="#f8fafc" stroke="#111" stroke-width="1" stroke-linejoin="round"/><polygon points="36,58 38,54 40,58" fill="#f8fafc" stroke="#111" stroke-width="1" stroke-linejoin="round"/><polygon points="42,58 44,54 46,58" fill="#f8fafc" stroke="#111" stroke-width="1" stroke-linejoin="round"/><polygon points="48,60 50,56 52,60" fill="#f8fafc" stroke="#111" stroke-width="1" stroke-linejoin="round"/><polygon points="32,64 34,68 36,64" fill="#f8fafc" stroke="#111" stroke-width="1" stroke-linejoin="round"/><polygon points="38,65 40,69 42,65" fill="#f8fafc" stroke="#111" stroke-width="1" stroke-linejoin="round"/><polygon points="44,64 46,68 48,64" fill="#f8fafc" stroke="#111" stroke-width="1" stroke-linejoin="round"/><circle cx="21" cy="50" r="4" fill="#fde047" stroke="#111" stroke-width="1.5"/><circle cx="21" cy="51.5" r="1.5" fill="#111"/><circle cx="16" cy="56" r="2.5" fill="#fde047" stroke="#111" stroke-width="1.5"/><circle cx="16" cy="57" r="1" fill="#111"/><circle cx="24" cy="58" r="2" fill="#fde047" stroke="#111" stroke-width="1.5"/><circle cx="24" cy="59" r="0.8" fill="#111"/><circle cx="59" cy="50" r="4" fill="#fde047" stroke="#111" stroke-width="1.5"/><circle cx="59" cy="51.5" r="1.5" fill="#111"/><circle cx="64" cy="56" r="2.5" fill="#fde047" stroke="#111" stroke-width="1.5"/><circle cx="64" cy="57" r="1" fill="#111"/><circle cx="56" cy="58" r="2" fill="#fde047" stroke="#111" stroke-width="1.5"/><circle cx="56" cy="59" r="0.8" fill="#111"/></svg>