<svg width="24" height="24" viewBox="0 0 24 24" xmlns="http://www.w3.org/2000/svg"><g transform="translate(1, 2)" fill="rgba(0,0,0,0.5)"><rect x="5" y="10" width="14" height="8" rx="2"/><rect x="4" y="6" width="4" height="6" rx="1"/><rect x="16" y="6" width="4" height="6" rx="1"/><circle cx="12" cy="10" r="4.5"/></g><rect x="5" y="10" width="14" height="8" rx="2" fill="#2563eb" stroke="#111" stroke-width="1.5"/><rect x="4" y="6" width="4" height="6" rx="1" fill="#2563eb" stroke="#111" stroke-width="1.5"/><rect x="16" y="6" width="4" height="6" rx="1" fill="#2563eb" stroke="#111" stroke-width="1.5"/><rect x="10" y="0" width="4" height="12" fill="#475569" stroke="#111" stroke-width="1.5"/><rect x="9" y="4" width="6" height="6" fill="#1e293b" stroke="#111" stroke-width="1.5"/><circle cx="10" cy="6" r="2.5" fill="#fdba74" stroke="#111" stroke-width="1.5"/><circle cx="14" cy="8" r="2.5" fill="#fdba74" stroke="#111" stroke-width="1.5"/><circle cx="12" cy="10" r="4.5" fill="#fdba74" stroke="#111" stroke-width="1.5"/><path d="M 7.5 10 A 4.5 4.5 0 0 0 16.5 10 Z" fill="#451a03" stroke="#111" stroke-width="1.5"/></svg>