<svg width="800" height="720" viewBox="0 0 800 720" xmlns="http://www.w3.org/2000/svg">
    <defs>
        <g id="crack1">
            <path d="M 0 0 l 20 15 l 5 30 l -10 20 l 15 25" fill="none" stroke="#0a0a0a" stroke-width="3" stroke-linejoin="round" stroke-linecap="round"/>
        </g>
        <g id="crack2">
            <path d="M 0 0 l -15 20 l 10 25 l -5 15" fill="none" stroke="#0a0a0a" stroke-width="2" stroke-linejoin="round" stroke-linecap="round"/>
        </g>
        <g id="crack3">
            <path d="M 0 0 l 25 -10 l 15 5 l 10 -15" fill="none" stroke="#0a0a0a" stroke-width="4" stroke-linejoin="round" stroke-linecap="round"/>
        </g>
    </defs>

    <rect x="0" y="0" width="800" height="720" fill="#111827"/>
    
    <line x1="2" y1="0" x2="2" y2="720" stroke="#020617" stroke-width="6"/>
    <line x1="798" y1="0" x2="798" y2="720" stroke="#020617" stroke-width="6"/>

    <path d="M 160 0 Q 180 360 140 720" fill="none" stroke="#020617" stroke-width="15" opacity="0.3"/>
    <path d="M 210 0 Q 230 360 190 720" fill="none" stroke="#020617" stroke-width="15" opacity="0.3"/>
    <path d="M 610 0 Q 580 400 620 720" fill="none" stroke="#020617" stroke-width="20" opacity="0.3"/>
    <path d="M 660 0 Q 630 400 670 720" fill="none" stroke="#020617" stroke-width="20" opacity="0.3"/>

    <use href="#crack1" x="110" y="100"/>
    <use href="#crack2" x="260" y="450" transform="rotate(45 260 450)"/>
    <use href="#crack3" x="160" y="300" transform="rotate(-15 160 300)"/>
    <use href="#crack1" x="510" y="250" transform="rotate(120 510 250)"/>
    <use href="#crack2" x="710" y="600" transform="rotate(-45 710 600)"/>
    <use href="#crack1" x="360" y="50" transform="rotate(-20 360 50)"/>
    <use href="#crack3" x="560" y="500" transform="rotate(60 560 500)"/>
    <use href="#crack2" x="60" y="650" transform="rotate(80 60 650)"/>

    <g opacity="0.75">
        <line x1="40" y1="0" x2="40" y2="720" stroke="#ca8a04" stroke-width="12"/>
        <line x1="760" y1="0" x2="760" y2="720" stroke="#ca8a04" stroke-width="12"/>
    </g>

    <rect x="35" y="45" width="20" height="15" fill="#111827"/>
    <rect x="35" y="120" width="10" height="25" fill="#111827"/>
    <rect x="40" y="250" width="15" height="12" fill="#111827"/>
    <rect x="35" y="380" width="20" height="30" fill="#111827"/>
    <rect x="38" y="500" width="15" height="18" fill="#111827"/>
    <rect x="35" y="620" width="12" height="40" fill="#111827"/>
    
    <rect x="755" y="80" width="20" height="20" fill="#111827"/>
    <rect x="762" y="190" width="15" height="35" fill="#111827"/>
    <rect x="755" y="330" width="18" height="15" fill="#111827"/>
    <rect x="758" y="460" width="20" height="25" fill="#111827"/>
    <rect x="755" y="580" width="10" height="50" fill="#111827"/>
    <rect x="760" y="680" width="15" height="18" fill="#111827"/>

    <line x1="400" y1="0" x2="400" y2="720" stroke="#94a3b8" stroke-width="10" stroke-dasharray="40 60" opacity="0.6"/>
    
    <rect x="395" y="130" width="20" height="10" fill="#111827"/>
    <rect x="398" y="325" width="15" height="15" fill="#111827"/>
    <rect x="395" y="535" width="20" height="12" fill="#111827"/>
    <circle cx="400" cy="220" r="6" fill="#111827"/>
    <circle cx="400" cy="420" r="5" fill="#111827"/>
</svg>
