<svg width="24" height="24" viewBox="0 0 24 24" xmlns="http://www.w3.org/2000/svg"><g fill="rgba(0,0,0,0.6)" transform="translate(1, 1)"><path d="M 6 10 L 19 10 L 19 13 L 6 13 Z"/><path d="M 6 10 L 2 11 L 2 15 L 5 15 L 6 13 Z"/><path d="M 6 13 L 8 13 L 7 18 L 5 18 Z"/><path d="M 10 13 L 12 13 L 12.5 18 L 9.5 19 Z"/><rect x="19" y="11" width="4" height="1"/><rect x="8" y="8" width="4" height="2"/></g><rect x="19" y="11" width="4" height="1" fill="#94a3b8" stroke="#111" stroke-width="1" stroke-linejoin="round"/><rect x="22" y="10.5" width="1" height="2" fill="#111"/><path d="M 13 10 L 19 10 L 19 13 L 13 13 Z" fill="#334155" stroke="#111" stroke-width="1" stroke-linejoin="round"/><path d="M 14 10 L 14 13 M 16 10 L 16 13 M 18 10 L 18 13" stroke="#1e293b" stroke-width="1"/><path d="M 6 10 L 13 10 L 13 13 L 6 13 Z" fill="#64748b" stroke="#111" stroke-width="1" stroke-linejoin="round"/><path d="M 8 10 L 8 8 L 12 8 L 12 10 Z" fill="#1e293b" stroke="#111" stroke-width="1" stroke-linejoin="round"/><circle cx="10" cy="9" r="0.5" fill="#f97316"/><path d="M 6 10 L 2 11 L 2 15 L 5 15 L 6 13 Z" fill="#1e293b" stroke="#111" stroke-width="1" stroke-linejoin="round"/><path d="M 6 13 L 8 13 L 7 18 L 5 18 Z" fill="#1e293b" stroke="#111" stroke-width="1" stroke-linejoin="round"/><path d="M 10 13 L 12 13 L 12.5 18 L 9.5 19 Z" fill="#334155" stroke="#111" stroke-width="1" stroke-linejoin="round"/><path d="M 10.5 14 L 10.5 18" stroke="#1e293b" stroke-width="1"/></svg>