<svg width="24" height="24" viewBox="0 0 24 24" xmlns="http://www.w3.org/2000/svg"><g transform="translate(1, 2)" fill="rgba(0,0,0,0.6)"><rect x="14" y="9" width="8" height="4" rx="1"/><rect x="6" y="8" width="8" height="6"/><rect x="4" y="7" width="2" height="8" rx="1"/><rect x="7" y="14" width="6" height="6"/></g><rect x="14" y="9" width="8" height="4" rx="1" fill="#475569" stroke="#111" stroke-width="1.5" stroke-linejoin="round"/><rect x="22" y="10" width="1" height="2" fill="#111"/><rect x="4" y="7" width="2" height="8" rx="1" fill="#64748b" stroke="#111" stroke-width="1.5" stroke-linejoin="round"/><rect x="3" y="10" width="1" height="2" fill="#e53e3e"/><rect x="7" y="14" width="6" height="6" fill="#00ffcc" stroke="#111" stroke-width="1.5" stroke-linejoin="round"/><line x1="8.5" y1="14" x2="8.5" y2="20" stroke="#0891b2" stroke-width="1"/><line x1="10" y1="14" x2="10" y2="20" stroke="#0891b2" stroke-width="1"/><line x1="11.5" y1="14" x2="11.5" y2="20" stroke="#0891b2" stroke-width="1"/><rect x="6" y="8" width="8" height="6" fill="#1e293b" stroke="#111" stroke-width="1.5" stroke-linejoin="round"/><line x1="6" y1="11" x2="14" y2="11" stroke="#111" stroke-width="1.5"/></svg>