<svg width="24" height="24" viewBox="0 0 24 24" xmlns="http://www.w3.org/2000/svg"><g fill="rgba(0,0,0,0.6)" transform="translate(1, 1)"><path d="M 6 10 L 23 10 L 23 12 L 6 12 Z"/><path d="M 6 10 L 1 11 L 1 15 L 4 14 Z"/><path d="M 6 12 L 8 12 L 7 18 L 4 18 Z"/><path d="M 9 12 L 13 12 Q 13 17 15 20 L 11 20 Q 9 16 9 12 Z"/><rect x="15" y="8" width="3" height="2"/></g><path d="M 6 10 L 15 10 L 15 9 L 18 9 L 18 10 L 23 10 L 23 12 L 6 12 Z" fill="#94a3b8" stroke="#111" stroke-width="1" stroke-linejoin="round"/><path d="M 6 10 L 1 11 L 1 15 L 4 14 Z" fill="#d97706" stroke="#111" stroke-width="1" stroke-linejoin="round"/><path d="M 6 12 L 8 12 L 7 18 L 4 18 Z" fill="#d97706" stroke="#111" stroke-width="1" stroke-linejoin="round"/><path d="M 12 10 L 17 10 L 17 12 L 11 12 Z" fill="#d97706" stroke="#111" stroke-width="1" stroke-linejoin="round"/><path d="M 9 12 L 13 12 Q 13 17 15 20 L 11 20 Q 9 16 9 12 Z" fill="#f59e0b" stroke="#111" stroke-width="1" stroke-linejoin="round"/><path d="M 10 14 Q 11 17 12 19" fill="none" stroke="#b45309" stroke-width="1"/><path d="M 11.5 13 Q 12.5 16 13.5 18" fill="none" stroke="#b45309" stroke-width="1"/><rect x="15" y="8" width="3" height="2" fill="#64748b" stroke="#111" stroke-width="1"/><rect x="21" y="8" width="1" height="2" fill="#111"/><rect x="13" y="8" width="1" height="2" fill="#111"/></svg>