<svg width="24" height="24" viewBox="0 0 24 24" xmlns="http://www.w3.org/2000/svg"><defs><linearGradient id="g0" x1="0%" y1="0%" x2="0%" y2="100%"><stop offset="0%" stop-color="#cbd5e1"/><stop offset="50%" stop-color="#64748b"/><stop offset="100%" stop-color="#334155"/></linearGradient></defs><path d="M 3 9 L 19 9 L 19 13 L 10 13 L 8 19 L 4 19 L 6 13 L 3 13 Z" fill="rgba(0,0,0,0.6)" transform="translate(1, 1)"/><path d="M 3 9 L 19 9 L 19 13 L 10 13 L 8 19 L 4 19 L 6 13 L 3 13 Z" fill="url(#g0)" stroke="#111" stroke-width="1" stroke-linejoin="round"/><path d="M 5.5 14 L 9 14 L 7.5 18 L 4.5 18 Z" fill="#1a202c"/><rect x="13" y="10" width="1" height="2" fill="#111"/><rect x="15" y="10" width="1" height="2" fill="#111"/><rect x="17" y="10" width="1" height="2" fill="#111"/><rect x="17" y="8" width="2" height="1" fill="#e53e3e"/><rect x="4" y="8" width="1" height="1" fill="#111"/><path d="M 10 13 Q 12 16 9 16" fill="none" stroke="#111" stroke-width="1"/></svg>