<svg width="24" height="24" viewBox="0 0 24 24" xmlns="http://www.w3.org/2000/svg"><g fill="rgba(0,0,0,0.6)" transform="translate(1, 1)"><path d="M 7 10 L 22 10 L 22 12.5 L 7 12.5 Z"/><path d="M 7 10 L 2 11 L 2 14 L 5 14 L 7 13 Z"/></g><rect x="12" y="10" width="10" height="1.5" fill="#64748b" stroke="#111" stroke-width="1" stroke-linejoin="round"/><rect x="12" y="11.5" width="8" height="1" fill="#475569" stroke="#111" stroke-width="1" stroke-linejoin="round"/><rect x="13" y="11.5" width="4" height="2" rx="0.5" fill="#d97706" stroke="#111" stroke-width="1" stroke-linejoin="round"/><path d="M 14 11.5 L 14 13.5 M 15 11.5 L 15 13.5 M 16 11.5 L 16 13.5" fill="none" stroke="#b45309" stroke-width="1"/><rect x="7" y="9.5" width="5" height="3" fill="#475569" stroke="#111" stroke-width="1" stroke-linejoin="round"/><rect x="8" y="10.5" width="3" height="1" fill="#1e293b"/><polygon points="7,10 2,11 2,14 5,14 7,12.5" fill="#d97706" stroke="#111" stroke-width="1" stroke-linejoin="round"/><path d="M 7 12.5 Q 8 15 6 15 L 5 14" fill="none" stroke="#111" stroke-width="1"/><rect x="6.5" y="13" width="1" height="1" fill="#111"/></svg>