<svg width="24" height="24" viewBox="0 0 24 24" xmlns="http://www.w3.org/2000/svg"><g transform="translate(1, 2)" fill="rgba(0,0,0,0.5)"><rect x="10" y="1" width="4" height="11"/><rect x="8" y="12" width="8" height="7"/><path d="M 9 19 L 7 19 L 7 22 M 15 19 L 17 19 L 17 22"/><rect x="3" y="13" width="5" height="5"/></g><rect x="10" y="1" width="4" height="11" fill="#475569" stroke="#111" stroke-width="1.5"/><line x1="10" y1="3" x2="14" y2="3" stroke="#1e293b" stroke-width="1.5"/><line x1="10" y1="6" x2="14" y2="6" stroke="#1e293b" stroke-width="1.5"/><line x1="10" y1="9" x2="14" y2="9" stroke="#1e293b" stroke-width="1.5"/><rect x="11" y="0" width="2" height="1" fill="#111"/><rect x="3" y="13" width="5" height="5" fill="#00ffcc" stroke="#111" stroke-width="1.5"/><line x1="4.5" y1="13" x2="4.5" y2="18" stroke="#111" stroke-width="1.5"/><line x1="6.5" y1="13" x2="6.5" y2="18" stroke="#111" stroke-width="1.5"/><rect x="8" y="12" width="8" height="7" fill="#1e293b" stroke="#111" stroke-width="1.5"/><rect x="9" y="13" width="6" height="4" fill="#334155" stroke="#111" stroke-width="1"/><path d="M 9 19 L 6 19 L 6 22 M 15 19 L 18 19 L 18 22" fill="none" stroke="#64748b" stroke-width="1.5" stroke-linejoin="round"/><rect x="5.5" y="21" width="2" height="1.5" fill="#e53e3e"/><rect x="16.5" y="21" width="2" height="1.5" fill="#e53e3e"/></svg>