<svg width="24" height="24" viewBox="0 0 24 24" xmlns="http://www.w3.org/2000/svg"><g transform="translate(1, 2)" fill="rgba(0,0,0,0.5)"><rect x="9" y="1" width="6" height="10"/><rect x="8" y="7" width="8" height="3"/><rect x="7" y="10" width="10" height="8" rx="2"/><ellipse cx="12" cy="19" rx="6" ry="4"/><rect x="4" y="13" width="3" height="2"/><rect x="17" y="13" width="3" height="2"/></g><rect x="9" y="1" width="2" height="10" fill="#94a3b8" stroke="#111" stroke-width="1"/><rect x="11.5" y="1" width="1" height="10" fill="#cbd5e1" stroke="#111" stroke-width="1"/><rect x="13" y="1" width="2" height="10" fill="#94a3b8" stroke="#111" stroke-width="1"/><rect x="8" y="7" width="8" height="3" fill="#334155" stroke="#111" stroke-width="1.5"/><rect x="7" y="10" width="10" height="8" rx="2" fill="#1e293b" stroke="#111" stroke-width="1.5"/><rect x="10" y="12" width="4" height="4" fill="#00ffcc" stroke="#111" stroke-width="1"/><rect x="4" y="13" width="3" height="2" fill="#64748b" stroke="#111" stroke-width="1.5"/><rect x="17" y="13" width="3" height="2" fill="#64748b" stroke="#111" stroke-width="1.5"/><ellipse cx="12" cy="20" rx="6" ry="4" fill="#0284c7" stroke="#111" stroke-width="1.5"/><ellipse cx="12" cy="20" rx="3" ry="1.5" fill="#00ffcc"/></svg>