<svg width="24" height="24" viewBox="0 0 24 24" xmlns="http://www.w3.org/2000/svg"><g transform="translate(1, 2)" fill="rgba(0,0,0,0.6)"><rect x="14" y="9" width="8" height="6"/><polygon points="6,8 14,9 14,16 6,15"/><rect x="4" y="10" width="2" height="4"/><path d="M 8 8 L 8 5 L 12 5 L 12 9"/><path d="M 6 15 Q 8 20 12 18"/></g><path d="M 6 15 Q 8 20 12 18" fill="none" stroke="#00ffcc" stroke-width="2"/><path d="M 6 15 Q 8 20 12 18" fill="none" stroke="#111" stroke-width="1" stroke-dasharray="1 1"/><rect x="14" y="9.5" width="8" height="1.5" fill="#94a3b8" stroke="#111" stroke-width="1"/><rect x="14" y="11.5" width="8" height="2" fill="#cbd5e1" stroke="#111" stroke-width="1"/><rect x="14" y="14" width="8" height="1.5" fill="#94a3b8" stroke="#111" stroke-width="1"/><rect x="15" y="8.5" width="2" height="8" fill="#334155" stroke="#111" stroke-width="1.5" stroke-linejoin="round"/><rect x="20" y="8.5" width="1" height="8" fill="#334155" stroke="#111" stroke-width="1.5" stroke-linejoin="round"/><polygon points="6,8 14,9 14,16 6,15" fill="#1e293b" stroke="#111" stroke-width="1.5" stroke-linejoin="round"/><line x1="10" y1="9" x2="10" y2="15" stroke="#111" stroke-width="1.5"/><path d="M 8 8 L 8 5 L 12 5 L 12 9" fill="none" stroke="#64748b" stroke-width="1.5" stroke-linejoin="round"/><rect x="9" y="4" width="2" height="2" fill="#e53e3e"/><rect x="4" y="10" width="2" height="4" fill="#64748b" stroke="#111" stroke-width="1.5" stroke-linejoin="round"/></svg>