<svg width="24" height="24" viewBox="0 0 24 24" xmlns="http://www.w3.org/2000/svg"><g transform="translate(1, 2)" fill="rgba(0,0,0,0.5)"><rect x="11" y="1" width="2" height="11"/><rect x="10" y="4" width="4" height="5"/><rect x="9.5" y="12" width="5" height="6"/><rect x="14.5" y="12.5" width="4" height="4" rx="0.5"/><rect x="10.5" y="18" width="3" height="4"/></g><path d="M 10 4 L 8 2 M 14 4 L 16 2" stroke="#64748b" stroke-width="1.5" stroke-linecap="round"/><rect x="11" y="1" width="2" height="11" fill="#94a3b8" stroke="#111" stroke-width="1.5"/><rect x="10" y="4" width="4" height="5" fill="#475569" stroke="#111" stroke-width="1.5"/><line x1="10.5" y1="5.5" x2="13.5" y2="5.5" stroke="#111" stroke-width="1"/><line x1="10.5" y1="7.5" x2="13.5" y2="7.5" stroke="#111" stroke-width="1"/><rect x="14.5" y="12.5" width="4" height="4" rx="0.5" fill="#0284c7" stroke="#111" stroke-width="1.5"/><line x1="15.5" y1="13.5" x2="17.5" y2="13.5" stroke="#00ffcc" stroke-width="1"/><line x1="15.5" y1="15.5" x2="17.5" y2="15.5" stroke="#00ffcc" stroke-width="1"/><rect x="9.5" y="12" width="5" height="6" fill="#334155" stroke="#111" stroke-width="1.5"/><rect x="10.5" y="18" width="3" height="4" fill="#1e293b" stroke="#111" stroke-width="1.5"/></svg>