<svg width="24" height="24" viewBox="0 0 24 24" xmlns="http://www.w3.org/2000/svg"><g transform="translate(1, 2)" fill="rgba(0,0,0,0.6)"><rect x="14" y="10" width="8" height="2"/><rect x="12" y="9" width="5" height="4"/><rect x="6" y="9" width="6" height="5"/><rect x="2" y="10" width="4" height="3"/><rect x="8" y="14" width="4" height="5" rx="0.5"/></g><path d="M 16 13 L 18 15" stroke="#64748b" stroke-width="1.5" stroke-linecap="round"/><rect x="14" y="10" width="8" height="2" fill="#94a3b8" stroke="#111" stroke-width="1.5" stroke-linejoin="round"/><rect x="12" y="9" width="5" height="4" fill="#475569" stroke="#111" stroke-width="1.5" stroke-linejoin="round"/><line x1="13" y1="10" x2="13" y2="12" stroke="#111" stroke-width="1"/><line x1="15" y1="10" x2="15" y2="12" stroke="#111" stroke-width="1"/><rect x="2" y="10" width="4" height="3" fill="#1e293b" stroke="#111" stroke-width="1.5" stroke-linejoin="round"/><rect x="8" y="14" width="4" height="5" rx="0.5" fill="#0284c7" stroke="#111" stroke-width="1.5" stroke-linejoin="round"/><line x1="9" y1="15" x2="11" y2="15" stroke="#00ffcc" stroke-width="1"/><line x1="9" y1="17" x2="11" y2="17" stroke="#00ffcc" stroke-width="1"/><rect x="6" y="9" width="6" height="5" fill="#334155" stroke="#111" stroke-width="1.5" stroke-linejoin="round"/><rect x="7" y="8" width="4" height="2" fill="#1e293b" stroke="#111" stroke-width="1" stroke-linejoin="round"/></svg>