<svg width="24" height="24" viewBox="0 0 24 24" xmlns="http://www.w3.org/2000/svg"><g fill="rgba(0,0,0,0.6)" transform="translate(1, 1)"><path d="M 4 9 L 16 9 L 16 10 L 20 10 L 20 12 L 16 12 L 16 14 L 12 14 L 12 22 L 8 22 L 8 14 L 4 14 Z"/><rect x="9" y="7" width="3" height="2"/><rect x="5" y="7" width="1" height="2"/></g><path d="M 8 14 L 11 14 L 11 22 L 8 22 Z" fill="#0ea5e9" stroke="#111" stroke-width="1" stroke-linejoin="round"/><path d="M 9 15 L 9 21" fill="none" stroke="#0284c7" stroke-width="1"/><path d="M 10 15 L 10 21" fill="none" stroke="#0284c7" stroke-width="1"/><path d="M 7 14 L 12 14 L 12 19 L 7 19 Z" fill="#cbd5e1" stroke="#111" stroke-width="1" stroke-linejoin="round"/><path d="M 7.5 15 L 11.5 15" fill="none" stroke="#64748b" stroke-width="1"/><path d="M 7.5 16.5 L 11.5 16.5" fill="none" stroke="#64748b" stroke-width="1"/><path d="M 7.5 18 L 11.5 18" fill="none" stroke="#64748b" stroke-width="1"/><path d="M 4 9 L 16 9 L 16 10 L 20 10 L 20 12 L 16 12 L 16 14 L 4 14 Z" fill="#94a3b8" stroke="#111" stroke-width="1" stroke-linejoin="round"/><path d="M 5 11 L 15 11" fill="none" stroke="#475569" stroke-width="1"/><path d="M 5 12 L 15 12" fill="none" stroke="#475569" stroke-width="1"/><rect x="9" y="7" width="3" height="2" fill="#cbd5e1" stroke="#111" stroke-width="1"/><rect x="5" y="7" width="1" height="2" fill="#111"/><rect x="15" y="8" width="1" height="1" fill="#111"/><rect x="17" y="10" width="1" height="2" fill="#111"/><rect x="19" y="10" width="1" height="2" fill="#111"/><path d="M 12 14 Q 15 14 14 17 L 12 17" fill="none" stroke="#111" stroke-width="1"/><path d="M 12 14 L 12.5 15.5" fill="none" stroke="#111" stroke-width="1"/></svg>